<svg width="318" height="58" viewBox="0 0 318 58" fill="none" xmlns="http://www.w3.org/2000/svg">
<path d="M127.432 29.12C124.36 27.488 128.2 26.288 129.064 27.488C133.432 23.12 138.184 17.408 143.032 10.64C144.808 7.76 146.536 5.024 148.168 2.96C148.648 2.336 150.904 1.568 150.472 2.24C144.232 11.888 139.912 22.016 137.128 29.456C141.112 29.504 145.72 28.544 148.792 26.48C149.32 26.144 148.936 27.2 148.408 27.536C145.816 29.216 141.208 30.032 136.888 30.128C135.928 32.768 135.304 35.024 134.776 36.752C134.392 38 133.192 39.104 132.04 39.632C131.512 39.872 130.984 39.488 131.176 38.72C131.704 36.608 132.664 33.536 133.816 30.128C131.368 30.08 129.496 29.744 127.96 29.264C124.6 32.432 117.784 38.576 112.456 38.576C109.432 38.576 107.8 36.512 108.04 33.296C108.472 28.064 115.384 19.232 119.656 19.232C122.008 19.232 122.632 21.536 121.24 25.232C120.664 26.768 119.32 27.584 119.896 26.624C121.528 23.888 122.152 20.096 119.608 20.096C117.448 20.096 111.304 26.672 110.68 33.488C110.44 35.84 111.544 37.28 113.848 37.28C116.92 37.28 121.72 34.544 127.432 29.12ZM134.056 29.36C135.736 24.56 138.232 19.232 140.488 15.008C136.648 20.096 132.904 24.368 129.4 27.872C130.264 28.64 131.8 29.12 134.056 29.36ZM156.117 24.224C156.501 23.84 156.693 23.36 156.693 22.928C156.693 22.4 156.453 21.632 155.685 21.632C153.381 21.632 148.101 28.544 147.237 34.208C146.997 35.744 147.621 37.04 149.109 37.04C151.269 37.04 156.117 34.448 163.605 27.008C163.797 26.816 163.845 27.104 163.605 27.344C155.061 36.416 149.781 38.528 146.805 38.528C143.973 38.528 143.733 35.984 143.973 34.448C144.98 27.728 152.421 21.104 155.781 21.104C156.789 21.104 157.365 21.728 157.365 22.832C157.365 25.088 155.493 27.488 153.812 27.488C153.237 27.488 152.901 27.104 153.141 26.24C153.573 24.752 155.349 23.792 156.117 24.224ZM170.102 26.144C170.966 24.56 170.63 23.072 168.47 23.888C165.686 24.896 162.278 29.504 161.894 33.92C161.75 35.456 162.278 36.512 163.814 36.512C165.974 36.512 171.206 34.496 178.502 26.768C178.79 26.48 178.838 27.056 178.502 27.392C169.91 36.464 164.582 38.336 161.606 38.336C158.87 38.336 158.294 35.984 158.678 34.448C160.31 28.16 165.926 23.216 169.238 22.976C171.014 22.88 171.638 23.84 171.062 26C170.774 27.056 169.622 28.64 168.566 28.88C167.558 29.12 166.358 28.448 166.934 27.008C167.27 26.192 168.518 25.376 170.102 26.144ZM179.01 29.216C176.466 34.784 177.714 36.8 179.106 36.752C181.17 36.656 186.594 34.016 193.074 26.72C193.266 26.528 193.266 27.248 192.93 27.632C185.778 35.072 181.602 37.52 177.81 38.048C175.65 38.336 173.442 37.04 174.162 34.112C175.794 27.296 181.938 22.16 184.626 21.056C186.642 20.24 186.738 21.824 186.45 22.832C185.874 24.704 182.514 28.496 179.01 29.216ZM179.634 27.872C182.274 27.728 185.586 24.032 185.922 22.4C186.018 21.824 185.586 21.44 184.578 21.968C183.474 22.544 181.266 24.704 179.634 27.872ZM185.917 38.432C186.637 39.056 189.901 38.384 191.005 34.448V34.4C186.445 36.464 185.293 37.904 185.917 38.432ZM193.549 23.984C193.165 24.704 193.165 25.76 193.357 26.96C194.413 25.712 195.805 23.744 195.661 22.976C195.517 22.208 194.125 22.976 193.549 23.984ZM206.365 22.352C206.701 22.736 205.981 23.792 204.733 25.088C204.733 26.912 205.885 30.8 205.453 33.44C204.973 36.224 202.573 38.24 199.981 38.432C198.349 38.528 196.381 37.952 196.861 36.752C197.101 36.176 198.013 35.408 198.541 35.36C200.269 35.264 198.973 37.472 200.461 37.616C201.997 37.712 202.573 36.128 202.765 34.736C203.053 32.624 202.237 29.888 202.237 27.68C200.317 29.36 197.293 31.376 194.269 32.912C194.269 33.008 194.221 33.104 194.221 33.2C193.117 38.384 186.829 40.304 185.197 38.912C184.285 38.144 185.101 36.704 191.149 33.872C191.389 32.576 191.389 30.8 191.197 29.168C190.909 27.2 191.101 25.04 192.637 23.36C194.077 21.824 195.997 21.776 196.189 22.832C196.381 23.984 194.941 25.808 193.453 27.44C193.837 28.928 194.461 30.608 194.365 32.336C197.149 30.896 200.269 28.88 202.237 27.2C202.477 23.888 205.213 21.152 206.365 22.352Z" fill="white"/>
<path d="M317.887 29L315 31.8868L312.113 29L315 26.1132L317.887 29ZM315 29.5H223V28.5H315V29.5Z" fill="white"/>
<path d="M0.113249 29L3 31.8868L5.88675 29L3 26.1132L0.113249 29ZM3 29.5H95V28.5H3V29.5Z" fill="white"/>
</svg>
