<svg width="320" height="61" viewBox="0 0 320 61" fill="none" xmlns="http://www.w3.org/2000/svg">
<path d="M84.432 32.12C81.36 30.488 85.2 29.288 86.064 30.488C90.432 26.12 95.184 20.408 100.032 13.64C101.808 10.76 103.536 8.024 105.168 5.96C105.648 5.336 107.904 4.568 107.472 5.24C101.232 14.888 96.912 25.016 94.128 32.456C98.112 32.504 102.72 31.544 105.792 29.48C106.32 29.144 105.936 30.2 105.408 30.536C102.816 32.216 98.208 33.032 93.888 33.128C92.928 35.768 92.304 38.024 91.776 39.752C91.392 41 90.192 42.104 89.04 42.632C88.512 42.872 87.984 42.488 88.176 41.72C88.704 39.608 89.664 36.536 90.816 33.128C88.368 33.08 86.496 32.744 84.96 32.264C81.6 35.432 74.784 41.576 69.456 41.576C66.432 41.576 64.8 39.512 65.04 36.296C65.472 31.064 72.384 22.232 76.656 22.232C79.008 22.232 79.632 24.536 78.24 28.232C77.664 29.768 76.32 30.584 76.896 29.624C78.528 26.888 79.152 23.096 76.608 23.096C74.448 23.096 68.304 29.672 67.68 36.488C67.44 38.84 68.544 40.28 70.848 40.28C73.92 40.28 78.72 37.544 84.432 32.12ZM91.056 32.36C92.736 27.56 95.232 22.232 97.488 18.008C93.648 23.096 89.904 27.368 86.4 30.872C87.264 31.64 88.8 32.12 91.056 32.36ZM108.317 25.208C106.877 25.448 105.245 25.688 104.237 25.928C103.565 26.072 103.085 25.16 103.757 25.016C105.101 24.776 107.165 24.44 108.941 24.248C110.525 21.992 112.397 19.496 113.597 17.96C114.557 16.664 115.901 15.896 117.197 15.32C117.725 15.08 118.397 15.176 118.157 15.512C116.957 17.192 116.573 17.864 115.421 19.4C114.557 20.552 113.357 22.184 112.109 24.056C114.317 23.96 117.149 23.864 118.733 23.864C119.021 23.864 118.637 24.44 118.397 24.44C116.669 24.44 113.789 24.584 111.581 24.776C107.597 30.632 103.037 38.216 104.861 39.896C106.061 40.664 112.733 37.688 119.597 30.008C120.173 29.336 119.741 30.536 119.501 30.824C113.213 37.736 106.205 41.624 103.565 41.384C99.4845 41.048 100.829 36.008 108.317 25.208ZM122.559 24.44C121.743 24.44 119.007 24.488 117.855 24.44C117.567 24.44 118.191 23.864 118.479 23.864C120.159 23.864 121.359 23.816 122.943 23.816C123.855 22.52 124.815 21.368 125.871 20.072C126.687 19.112 127.935 18.68 128.607 18.632C129.375 18.536 128.799 19.544 128.415 20.12C127.503 21.368 126.591 22.616 125.727 23.912C127.743 23.912 129.423 23.912 131.583 24.008C131.823 24.008 131.343 24.728 131.151 24.728C129.039 24.536 127.503 24.44 125.295 24.488C117.087 36.536 118.287 40.664 120.687 40.088C122.751 39.608 125.871 38.168 129.087 35.72C131.679 30.44 135.663 25.928 139.023 24.968C139.935 24.68 140.799 25.64 140.223 27.224C139.551 29.144 136.719 31.928 132.591 34.472C132.159 35.72 131.775 36.92 131.727 38.216C131.679 39.656 132.255 40.904 133.839 40.76C135.903 40.52 139.983 38.696 147.999 30.056C148.143 29.864 147.999 30.68 147.807 30.872C139.311 39.992 135.039 41.96 131.967 41.96C129.279 41.96 128.271 40.52 128.271 38.744C128.271 38.12 128.415 37.496 128.607 36.824C125.631 39.08 122.943 40.184 120.543 41.048C116.463 42.488 114.687 40.04 115.743 37.016C116.607 34.424 119.583 28.568 122.559 24.44ZM132.927 33.368C135.471 32.12 139.119 28.616 139.551 27.224C139.887 26.168 139.263 25.688 139.071 25.688C137.391 25.688 134.415 29.816 132.927 33.368ZM156.31 27.608C155.254 28.184 151.606 31.4 144.838 40.424C144.166 41.48 142.87 42.104 142.15 42.104C141.67 42.104 141.43 41.864 141.67 41.288C142.438 39.464 143.782 36.92 145.558 33.032C146.23 31.592 146.71 29.864 147.478 29.096C148.294 28.28 149.542 27.656 150.262 27.656C150.886 27.656 151.174 28.136 150.31 29.336C149.158 31.16 147.91 33.944 145.75 38.216C152.326 29.432 155.59 26.312 157.558 26.312C158.758 26.312 159.43 27.992 158.326 30.248C156.886 33.224 154.534 37.352 154.534 39.56C154.534 40.472 154.918 40.808 155.446 40.808C156.79 40.808 162.262 38.216 168.742 29.768C169.27 29.096 169.366 30.008 168.934 30.536C160.87 40.04 155.782 42.104 153.67 42.104C152.566 42.104 151.27 41.192 151.27 40.136C151.27 36.632 155.926 30.392 156.31 27.608ZM173.367 31.736C173.895 31.016 174.087 30.392 174.087 29.912C174.087 29.288 173.751 28.856 173.367 28.856C172.023 28.856 169.287 31.976 166.935 35C165.015 37.496 164.007 39.464 164.007 40.568C164.007 41.24 164.487 41.528 165.159 41.528C170.631 41.528 184.935 21.704 184.935 10.568C184.935 8.504 184.455 6.68 183.303 5.384C181.431 3.272 178.263 2.072 174.423 2.072C164.919 2.072 152.343 10.136 152.343 14.84C152.343 16.424 153.783 17.48 155.367 17.48C157.287 17.48 159.111 16.904 161.127 15.944C161.943 15.56 160.839 16.856 160.551 17C158.679 18.248 156.807 18.776 155.223 18.776C153.015 18.776 151.335 17.672 151.335 15.896C151.335 9.704 165.591 0.871999 177.447 0.871999C180.615 0.871999 183.447 1.544 185.415 3.128C187.287 4.664 188.199 6.968 188.199 9.608C188.199 21.56 171.063 42.488 164.631 42.488C163.143 42.488 162.567 41.432 162.567 39.8C162.567 37.688 163.671 34.568 165.927 31.784C167.895 29.384 170.391 27.944 172.407 27.944C173.991 27.944 174.711 28.712 174.711 29.864C174.711 30.392 174.519 30.968 174.231 31.544C174.039 31.928 173.175 32.024 173.367 31.736ZM189.314 36.488C186.722 39.368 184.418 40.904 182.738 40.952C180.962 41 179.618 38.936 181.778 35.144C184.61 30.2 189.554 26.744 192.53 26.744C193.154 26.744 194.354 26.744 194.402 28.088C194.882 27.512 196.274 26.408 197.33 25.976C197.666 25.832 198.098 26.264 197.954 26.552C195.41 30.92 191.618 36.68 191.234 39.272C190.994 40.616 191.57 41.192 192.626 41.096C194.45 40.904 199.058 38.456 206.642 29.96C206.786 29.768 207.074 30.344 206.69 30.776C199.49 38.36 194.834 41.528 192.338 42.008C188.93 42.68 187.634 40.136 189.314 36.488ZM193.778 28.952C193.874 27.608 193.346 27.464 192.578 27.464C189.89 27.464 184.85 33.56 183.746 38.072C183.554 38.792 184.082 39.512 185.042 39.128C186.77 38.408 189.41 35.912 191.282 32.936C192.338 31.16 193.346 29.576 193.778 28.952ZM215.138 27.608C214.082 28.184 210.434 31.4 203.666 40.424C202.994 41.48 201.698 42.104 200.978 42.104C200.498 42.104 200.258 41.864 200.498 41.288C201.266 39.464 202.61 36.92 204.386 33.032C205.058 31.592 205.538 29.864 206.306 29.096C207.122 28.28 208.37 27.656 209.09 27.656C209.714 27.656 210.002 28.136 209.138 29.336C207.986 31.16 206.738 33.944 204.578 38.216C211.154 29.432 214.418 26.312 216.386 26.312C217.586 26.312 218.258 27.992 217.154 30.248C215.714 33.224 213.362 37.352 213.362 39.56C213.362 40.472 213.746 40.808 214.274 40.808C215.618 40.808 221.09 38.216 227.57 29.768C228.098 29.096 228.194 30.008 227.762 30.536C219.698 40.04 214.61 42.104 212.498 42.104C211.394 42.104 210.098 41.192 210.098 40.136C210.098 36.632 214.754 30.392 215.138 27.608ZM234.211 29.144C235.075 27.56 234.739 26.072 232.579 26.888C229.795 27.896 226.387 32.504 226.003 36.92C225.859 38.456 226.387 39.512 227.923 39.512C230.083 39.512 235.315 37.496 242.611 29.768C242.899 29.48 242.947 30.056 242.611 30.392C234.019 39.464 228.691 41.336 225.715 41.336C222.979 41.336 222.403 38.984 222.787 37.448C224.419 31.16 230.035 26.216 233.347 25.976C235.123 25.88 235.747 26.84 235.171 29C234.883 30.056 233.731 31.64 232.675 31.88C231.667 32.12 230.467 31.448 231.043 30.008C231.379 29.192 232.627 28.376 234.211 29.144ZM243.12 32.072C242.016 34.376 241.44 36.392 241.44 37.832C241.44 39.224 241.968 40.04 243.216 40.04C244.272 40.04 245.856 39.416 247.968 37.976C248.16 37.832 248.448 38.168 248.112 38.504C246.048 40.472 243.168 41.624 241.536 41.624C239.712 41.624 237.84 40.184 238.368 37.16C239.616 29.96 247.056 24.296 248.976 23.768C250.224 23.432 250.8 24.248 250.512 25.208C249.888 27.272 247.44 30.392 243.12 32.072ZM243.456 31.208C245.952 30.584 249.456 26.84 249.84 25.304C249.984 24.68 250.08 24.248 249.264 24.488C248.016 24.872 245.616 27.128 243.456 31.208Z" fill="white"/>
<path d="M319.887 32L317 34.8868L314.113 32L317 29.1132L319.887 32ZM317 32.5H262V31.5H317V32.5Z" fill="white"/>
<path d="M0.113249 32L3 34.8868L5.88675 32L3 29.1132L0.113249 32ZM3 32.5H58V31.5H3V32.5Z" fill="white"/>
</svg>
