<svg width="317" height="62" viewBox="0 0 317 62" fill="none" xmlns="http://www.w3.org/2000/svg">
<path d="M0.113249 29L3 31.8868L5.88675 29L3 26.1132L0.113249 29ZM3 29.5H83V28.5H3V29.5Z" fill="white"/>
<path d="M112.728 29.648C113.544 28.016 114.456 26.24 116.28 25.232C117.336 24.608 118.92 24.608 118.344 25.472C111.96 34.784 110.52 41.264 106.68 47.072C100.824 55.904 93.048 60.176 91.704 57.488C90.024 54.08 101.256 44.384 105.576 42.128C106.248 41.792 105.816 43.088 105.24 43.328C100.92 45.104 90.696 54.368 93.048 56.768C93.624 57.344 98.952 56.624 104.376 46.88C107.064 42.032 108.696 36.752 111.528 31.76C104.472 38.24 97.464 37.088 97.176 32.624C96.456 21.248 117.816 0.559999 124.824 4.064C129.528 6.416 122.472 17.984 117.768 17.36C115.608 17.072 115.944 14.144 117.336 13.568C118.488 13.088 119.928 14.192 119.592 15.44C122.088 15.536 128.52 7.28 124.536 4.736C119.304 1.376 100.584 20.96 101.448 31.568C101.784 35.456 107.064 35.936 112.728 29.648ZM124.085 25.856C123.653 25.52 123.221 25.088 123.125 24.56C122.789 22.832 124.853 21.92 125.813 21.92C127.253 21.92 127.109 23.504 125.189 25.52C126.245 25.952 127.589 25.808 128.741 25.328C129.221 25.136 129.797 25.424 129.317 26.096C127.013 29.264 125.093 32.288 124.037 35.264C123.413 36.992 124.085 38.432 125.189 38.288C128.453 37.856 134.597 32 138.245 27.152C138.341 26.912 138.485 27.392 138.341 27.584C134.837 32 128.597 38.96 124.517 39.104C122.357 39.2 121.253 38.144 121.253 36.704C121.253 34.448 123.605 30.608 126.533 26.48C125.765 26.48 125.093 26.336 124.613 26.144C122.981 28.256 119.189 32.336 116.789 34.16C116.501 34.4 116.693 33.632 116.933 33.44C119.141 31.856 122.789 27.68 124.085 25.856ZM139.304 28.544C137.864 30.896 136.808 33.44 136.76 35.216C136.712 36.608 137.096 38 138.632 37.856C140.744 37.616 145.112 35.456 152.936 26.768C153.128 26.528 152.936 27.392 152.792 27.536C144.248 36.752 140.072 39.2 137 39.2C134.744 39.2 132.584 37.616 133.256 34.688C134.312 30.032 141.608 21.2 144.824 20.864C146.264 20.72 146.744 21.392 145.928 23.6C145.544 24.56 143.384 27.68 139.304 28.544ZM139.88 27.584C142.808 27.248 144.824 24.56 145.256 23.84C146.216 22.256 145.88 21.68 145.064 21.872C143.72 22.16 141.656 24.848 139.88 27.584ZM153.354 29.216C150.81 34.784 152.058 36.8 153.45 36.752C155.514 36.656 160.938 34.016 167.418 26.72C167.61 26.528 167.61 27.248 167.274 27.632C160.122 35.072 155.946 37.52 152.154 38.048C149.994 38.336 147.786 37.04 148.506 34.112C150.138 27.296 156.282 22.16 158.97 21.056C160.986 20.24 161.082 21.824 160.794 22.832C160.218 24.704 156.858 28.496 153.354 29.216ZM153.978 27.872C156.618 27.728 159.93 24.032 160.266 22.4C160.362 21.824 159.93 21.44 158.922 21.968C157.818 22.544 155.61 24.704 153.978 27.872ZM169.861 21.44H165.157C164.869 21.44 165.493 20.864 165.781 20.864C167.461 20.864 168.661 20.816 170.245 20.816C171.157 19.52 172.117 18.368 173.173 17.072C173.989 16.112 175.237 15.68 175.909 15.632C176.677 15.536 176.101 16.544 175.717 17.12C174.805 18.368 173.893 19.616 173.029 20.912C175.045 20.912 176.725 20.912 178.885 21.008C179.125 21.008 178.645 21.728 178.453 21.728C176.341 21.536 174.805 21.44 172.597 21.488C168.229 27.872 164.389 34.16 167.077 35.792C168.805 36.848 172.885 35.36 181.237 27.056C181.477 26.816 181.621 27.344 181.237 27.728C164.533 44.432 161.557 37.616 163.285 32.48C164.149 29.888 166.885 25.568 169.861 21.44ZM178.405 38.384C176.677 38.576 176.005 37.232 176.149 35.984C176.437 33.584 178.453 30.08 180.469 26.576C181.093 25.472 182.005 24.416 182.773 24.032C183.877 23.504 184.885 23.888 184.693 24.32C184.069 25.904 179.941 31.184 179.125 35.792C178.501 39.248 185.173 35.792 192.661 27.008C192.997 26.576 192.901 27.632 192.517 28.016C188.389 32.288 183.013 37.904 178.405 38.384ZM186.469 18.512C185.461 18.656 184.837 17.696 185.173 16.544C185.461 15.536 186.661 14.24 187.669 14.768C189.397 15.728 188.149 18.272 186.469 18.512ZM201.357 24.608C200.301 25.184 196.653 28.4 189.885 37.424C189.213 38.48 187.917 39.104 187.197 39.104C186.717 39.104 186.477 38.864 186.717 38.288C187.485 36.464 188.829 33.92 190.605 30.032C191.277 28.592 191.757 26.864 192.525 26.096C193.341 25.28 194.589 24.656 195.309 24.656C195.933 24.656 196.221 25.136 195.357 26.336C194.205 28.16 192.957 30.944 190.797 35.216C197.373 26.432 200.637 23.312 202.605 23.312C203.805 23.312 204.477 24.992 203.373 27.248C201.933 30.224 199.581 34.352 199.581 36.56C199.581 37.472 199.965 37.808 200.493 37.808C201.837 37.808 207.309 35.216 213.789 26.768C214.317 26.096 214.413 27.008 213.981 27.536C205.917 37.04 200.829 39.104 198.717 39.104C197.613 39.104 196.317 38.192 196.317 37.136C196.317 33.632 200.973 27.392 201.357 24.608ZM218.414 30.128C214.766 34.976 211.358 37.76 209.438 36.752C207.374 35.696 209.006 31.712 211.886 28.496C214.718 25.328 219.182 22.64 220.67 24.416C221.006 23.696 221.678 23.312 222.494 23.024C223.55 22.688 223.022 24.704 222.638 25.856C216.014 46.64 203.246 60.416 191.39 61.04C184.046 61.424 179.054 56.48 179.582 50.48C179.918 46.832 182.798 44.336 184.958 43.904C187.55 43.376 189.854 45.536 188.462 48.896C188.078 49.856 186.782 50.48 186.686 49.904C186.59 49.328 187.838 46.16 184.862 45.392C183.038 44.912 180.35 47.12 180.11 50.672C179.726 56.528 185.15 60.944 190.91 60.512C201.998 59.696 210.782 48.704 218.414 30.128ZM219.23 28.112L220.382 25.184V25.088C217.79 21.344 210.11 35.12 211.118 35.456C212.75 36.128 217.166 31.28 219.23 28.112Z" fill="white"/>
<path d="M316.887 29L314 31.8868L311.113 29L314 26.1132L316.887 29ZM314 29.5L234 29.5V28.5L314 28.5V29.5Z" fill="white"/>
</svg>
