<svg width="318" height="58" viewBox="0 0 318 58" fill="none" xmlns="http://www.w3.org/2000/svg">
<path d="M0.113249 24L3 26.8868L5.88675 24L3 21.1132L0.113249 24ZM3 24.5H108V23.5H3V24.5Z" fill="white"/>
<path d="M138.24 21.824C141.264 16.064 145.44 9.968 148.8 7.088C141.6 10.352 134.352 8.816 133.584 5.312C133.44 4.688 136.32 1.04 136.704 3.392C137.376 7.376 141.072 9.68 149.328 6.272C151.2 3.824 153.744 2.576 154.992 3.008C155.808 3.296 154.128 5.84 150.288 7.04C148.272 9.632 144.768 15.344 142.128 20.96C143.424 20.72 145.632 20.384 147.168 20.144C151.968 12.032 163.152 0.463997 168.96 2.144C172.752 3.248 169.2 15.248 150.24 20.288C146.4 26.768 143.76 33.872 144.528 37.568C145.2 40.832 151.296 39.44 162.624 26.576C163.008 26.096 163.2 27.008 162.576 27.68C148.992 42.656 142.656 41.792 141.312 38.864C140.016 36.176 142.944 27.584 146.688 20.96C145.008 21.248 143.184 21.584 141.696 21.872C131.664 40.976 121.248 43.664 118.512 39.536C115.152 34.4 122.784 25.952 138.24 21.824ZM137.712 22.832C122.16 27.104 116.4 35.648 119.328 38.96C122.16 42.128 128.112 40.832 137.712 22.832ZM150.816 19.328C169.296 14.096 172.32 2.72 167.76 2.72C163.68 2.72 156.096 10.832 150.816 19.328ZM168.43 28.16C167.422 27.104 166.942 25.664 167.23 24.512C167.422 23.696 168.19 23.264 168.862 23.264C169.246 23.264 169.63 23.408 169.87 23.696C170.062 23.936 170.254 25.04 170.014 25.904C170.206 27.152 171.454 28.832 172.894 28.88C174.814 28.976 176.206 28.736 178.462 26.336C178.654 26.096 178.414 27.008 178.27 27.152C176.878 28.688 174.718 29.696 172.222 29.696C170.878 29.696 169.774 29.264 168.958 28.64C168.574 29.504 168.094 30.464 167.518 31.424C165.982 33.968 162.094 39.008 158.782 39.008C157.342 39.008 156.526 37.76 156.67 36.272C156.91 32.768 161.47 26.48 165.31 24.896C165.55 24.8 166.222 25.184 165.934 25.424C163.006 28.304 160.222 33.104 159.838 35.504C159.646 36.848 160.414 37.28 160.99 37.088C163.102 36.464 165.262 34.064 166.846 31.424C167.47 30.32 168.046 29.216 168.43 28.16ZM177.376 33.152C177.712 30.944 177.28 27.968 177.664 25.808C178.24 22.304 182.224 21.68 183.28 23.072C183.52 23.456 182.896 25.136 182.608 24.032C182.032 21.872 180.4 23.312 180.208 24.992C180.064 26.48 180.976 29.12 180.784 31.952C184.336 30.368 188.656 28.976 191.488 26.672C191.92 26.336 191.776 27.248 191.248 27.632C188.224 29.744 184 31.088 180.736 32.336C180.304 36.272 176.8 39.008 174.448 38.672C172.576 38.432 172.48 36.896 173.728 35.456C174.496 34.496 175.84 33.92 177.376 33.152ZM177.328 33.584C176.128 34.256 174.976 34.88 174.208 35.84C173.2 37.088 173.776 38.144 174.928 37.76C175.888 37.472 176.8 36.512 177.328 33.584ZM193.435 21.44C192.571 21.488 190.939 21.44 189.547 21.44C189.259 21.44 189.835 20.864 190.123 20.864C191.083 20.864 193.051 20.816 193.819 20.864C194.731 19.472 195.739 18.032 196.891 16.4C197.707 15.2 199.051 14.48 200.155 13.808C200.827 13.424 200.875 14.288 200.443 14.912C199.963 15.632 196.987 20 196.363 20.912C198.523 20.96 200.875 21.008 203.179 21.008C203.419 21.008 203.323 21.44 203.131 21.44C200.779 21.44 198.283 21.488 195.931 21.536C192.811 26.288 190.603 30.272 189.835 33.632C188.971 37.376 191.707 40.256 199.867 33.344C200.347 32.96 200.107 33.776 199.579 34.16C189.403 42.464 184.699 37.76 187.531 31.712C189.403 27.824 191.227 24.8 193.435 21.44Z" fill="white"/>
<path d="M317.887 24L315 26.8868L312.113 24L315 21.1132L317.887 24ZM315 24.5H210V23.5H315V24.5Z" fill="white"/>
</svg>
