<svg width="320" height="58" viewBox="0 0 320 58" fill="none" xmlns="http://www.w3.org/2000/svg">
<path d="M319.887 26L317 28.8868L314.113 26L317 23.1132L319.887 26ZM317 26.5H247V25.5H317V26.5Z" fill="white"/>
<path d="M0.113249 26L3 28.8868L5.88675 26L3 23.1132L0.113249 26ZM3 26.5H73V25.5H3V26.5Z" fill="white"/>
<path d="M106.096 11.072C102.4 10.016 98.8 8.816 95.776 8.816C90.928 8.816 87.376 15.2 90.928 16.736C91.36 16.928 90.64 17.648 89.968 17.072C86.512 14.096 92.032 7.28 97.84 6.992C102.064 6.8 110.368 10.592 117.52 10.064C120.88 9.824 121.648 8.384 120.832 7.712C119.872 6.944 119.968 5.888 121.456 6.512C123.088 7.184 120.88 12.992 113.248 12.512C111.136 12.368 109.024 11.888 106.864 11.312C103.984 13.424 103.072 16.208 98.896 25.184C91.648 40.64 83.584 44.576 79.504 42.512C74.8 40.112 83.536 26.576 89.248 26.768C90.4 26.816 90.976 27.632 90.208 27.584C82.96 27.056 75.424 40.928 80.656 42.224C85.504 43.472 91.024 35.504 95.344 25.616C97.888 19.856 101.056 14.24 106.096 11.072ZM103.42 38.384C101.692 38.576 101.02 37.232 101.164 35.984C101.452 33.584 103.468 30.08 105.484 26.576C106.108 25.472 107.02 24.416 107.788 24.032C108.892 23.504 109.9 23.888 109.708 24.32C109.084 25.904 104.956 31.184 104.14 35.792C103.516 39.248 110.188 35.792 117.676 27.008C118.012 26.576 117.916 27.632 117.532 28.016C113.404 32.288 108.028 37.904 103.42 38.384ZM111.484 18.512C110.476 18.656 109.852 17.696 110.188 16.544C110.476 15.536 111.676 14.24 112.684 14.768C114.412 15.728 113.164 18.272 111.484 18.512ZM116.628 32.816C120.036 27.92 125.652 22.928 128.148 21.968C129.684 21.392 130.692 22.16 130.788 22.928C130.98 24.608 128.436 28.448 126.516 31.52C131.556 25.088 135.828 23.12 136.836 22.736C138.756 22.016 140.1 23.552 138.324 26.096C135.348 30.224 134.052 33.632 133.62 35.6C133.332 36.848 133.716 37.568 134.676 37.328C137.124 36.704 142.932 33.152 147.492 27.056C148.212 26.096 148.116 27.248 147.732 27.728C144.612 31.856 137.124 38.192 132.708 39.056C130.884 39.44 129.78 38.384 130.068 36.848C130.884 32.192 136.068 26.096 136.02 23.984C134.244 24.944 132.516 26.144 130.932 27.584C128.292 29.984 125.94 32.96 124.308 36.32C123.972 37.04 122.436 37.712 121.62 37.712C121.092 37.712 120.852 37.424 121.38 36.656C122.148 35.552 122.868 34.256 123.684 32.624C125.7 28.64 127.812 24.416 127.764 23.264C125.268 24.368 120.852 27.872 114.084 36.848C113.7 37.424 112.164 38.048 111.348 38.048C110.868 38.048 110.628 37.856 110.916 37.328C111.156 36.848 114.756 31.136 115.908 28.928C116.292 28.208 117.348 26.432 117.828 25.136C118.26 24.032 120.036 22.592 121.284 22.544C121.572 22.544 122.1 23.168 121.812 23.696C120.756 25.568 118.116 30.32 116.628 32.816ZM148.307 29.216C145.763 34.784 147.011 36.8 148.403 36.752C150.467 36.656 155.891 34.016 162.371 26.72C162.563 26.528 162.563 27.248 162.227 27.632C155.075 35.072 150.899 37.52 147.107 38.048C144.947 38.336 142.739 37.04 143.459 34.112C145.091 27.296 151.235 22.16 153.923 21.056C155.939 20.24 156.035 21.824 155.747 22.832C155.171 24.704 151.811 28.496 148.307 29.216ZM148.931 27.872C151.571 27.728 154.883 24.032 155.219 22.4C155.315 21.824 154.883 21.44 153.875 21.968C152.771 22.544 150.563 24.704 148.931 27.872ZM164.814 21.44H160.11C159.822 21.44 160.446 20.864 160.734 20.864C162.414 20.864 163.614 20.816 165.198 20.816C166.11 19.52 167.07 18.368 168.126 17.072C168.942 16.112 170.19 15.68 170.862 15.632C171.63 15.536 171.054 16.544 170.67 17.12C169.758 18.368 168.846 19.616 167.982 20.912C169.998 20.912 171.678 20.912 173.838 21.008C174.078 21.008 173.598 21.728 173.406 21.728C171.294 21.536 169.758 21.44 167.55 21.488C163.182 27.872 159.342 34.16 162.03 35.792C163.758 36.848 167.838 35.36 176.19 27.056C176.43 26.816 176.574 27.344 176.19 27.728C159.486 44.432 156.51 37.616 158.238 32.48C159.102 29.888 161.838 25.568 164.814 21.44ZM178.83 33.488C176.238 36.368 173.934 37.904 172.254 37.952C170.478 38 169.134 35.936 171.294 32.144C174.126 27.2 179.07 23.744 182.046 23.744C182.67 23.744 183.87 23.744 183.918 25.088C184.398 24.512 185.79 23.408 186.846 22.976C187.182 22.832 187.614 23.264 187.47 23.552C184.926 27.92 181.134 33.68 180.75 36.272C180.51 37.616 181.086 38.192 182.142 38.096C183.966 37.904 188.574 35.456 196.158 26.96C196.302 26.768 196.59 27.344 196.206 27.776C189.006 35.36 184.35 38.528 181.854 39.008C178.446 39.68 177.15 37.136 178.83 33.488ZM183.294 25.952C183.39 24.608 182.862 24.464 182.094 24.464C179.406 24.464 174.366 30.56 173.262 35.072C173.07 35.792 173.598 36.512 174.558 36.128C176.286 35.408 178.926 32.912 180.798 29.936C181.854 28.16 182.862 26.576 183.294 25.952ZM201.63 32.144C200.142 31.712 199.23 30.608 199.23 29.216C199.23 27.248 200.862 26.048 201.726 26.048C202.494 26.048 203.549 26.96 203.549 28.496C203.549 28.976 203.502 29.408 203.118 30.32C203.742 30.848 204.462 31.136 205.614 31.136C207.966 31.136 210.798 29.744 213.438 26.816C213.534 26.72 213.87 27.344 213.677 27.536C210.366 30.8 206.67 32.384 203.549 32.384C203.166 32.384 202.638 32.384 202.206 32.288C199.758 36.848 195.39 40.4 192.99 40.112C189.245 39.68 192.654 30.368 196.11 24.032C203.406 10.688 211.902 0.847998 215.646 0.607998C218.91 0.415998 216.75 6.176 215.07 9.056C211.134 15.824 205.806 20.672 197.838 26.624C195.966 30.272 194.622 34.592 194.622 36.8C194.622 37.76 194.862 38.288 195.39 38.288C196.446 38.288 199.614 35.84 201.63 32.144ZM198.558 25.184C204.366 21.104 209.406 16.976 214.686 8.864C216.27 6.416 217.758 1.184 215.646 1.376C212.718 1.664 205.662 11.456 198.558 25.184ZM202.734 29.936C202.878 29.648 203.07 29.216 203.07 28.784C203.07 28.304 202.83 27.2 202.109 27.2C201.918 27.2 201.773 27.296 201.773 27.536C201.773 28.4 202.158 29.168 202.734 29.936ZM228.139 27.632C218.443 36.656 213.163 39.392 210.955 39.392C208.651 39.392 207.739 38.528 208.123 36.032C208.411 33.92 212.011 27.632 215.179 22.448C222.571 10.208 231.211 1.088 233.419 1.088C234.763 1.088 235.147 2.624 234.715 4.208C233.611 8.336 224.011 20.192 215.467 26.816C212.923 31.328 210.427 36.56 211.627 37.568C212.875 38.624 217.867 36.608 228.043 27.056C228.859 26.288 228.139 27.632 228.139 27.632ZM216.667 24.8C224.539 18.464 229.723 12.08 233.227 6.272C234.235 4.592 235.051 1.76 233.515 1.76C231.403 1.76 221.803 16.064 216.667 24.8ZM228.698 29.072C227.594 31.376 227.018 33.392 227.018 34.832C227.018 36.224 227.546 37.04 228.794 37.04C229.85 37.04 231.434 36.416 233.546 34.976C233.738 34.832 234.026 35.168 233.69 35.504C231.626 37.472 228.746 38.624 227.114 38.624C225.29 38.624 223.418 37.184 223.946 34.16C225.194 26.96 232.634 21.296 234.554 20.768C235.802 20.432 236.378 21.248 236.09 22.208C235.466 24.272 233.018 27.392 228.698 29.072ZM229.034 28.208C231.53 27.584 235.034 23.84 235.418 22.304C235.562 21.68 235.658 21.248 234.842 21.488C233.594 21.872 231.194 24.128 229.034 28.208Z" fill="white"/>
</svg>
