<svg width="214" height="25" viewBox="0 0 214 25" fill="none" xmlns="http://www.w3.org/2000/svg">
<path d="M14.6455 20.844C14.6455 18.468 14.0335 18 10.4335 18H3.01752V17.136L9.38952 12.132C12.1615 9.936 12.8455 7.992 12.8455 6.66C12.8455 4.572 11.2615 3.312 8.95752 3.312C6.47352 3.312 4.06152 5.76 5.86152 8.712L4.78152 9.828C0.461516 7.236 2.69352 1.8 8.95752 1.8C12.4855 1.8 15.8335 3.636 15.8335 6.624C15.8335 9.504 12.5215 11.664 12.5215 11.664L6.97752 15.912H16.3015L15.4015 20.844H14.6455ZM29.7126 18.612C25.1046 18.612 21.3246 14.832 21.3246 10.188C21.3246 5.58 25.1046 1.8 29.7126 1.8C34.3206 1.8 38.1006 5.58 38.1006 10.188C38.1006 14.832 34.3206 18.612 29.7126 18.612ZM29.7126 16.524C33.0246 16.524 35.7966 13.68 35.7966 10.188C35.7966 6.732 33.0246 3.852 29.7126 3.852C26.3646 3.852 23.6286 6.732 23.6286 10.188C23.6286 13.68 26.3646 16.524 29.7126 16.524ZM54.6533 20.844C54.6533 18.468 54.0413 18 50.4413 18H43.0253V17.136L49.3973 12.132C52.1693 9.936 52.8533 7.992 52.8533 6.66C52.8533 4.572 51.2693 3.312 48.9653 3.312C46.4813 3.312 44.0693 5.76 45.8693 8.712L44.7893 9.828C40.4693 7.236 42.7013 1.8 48.9653 1.8C52.4933 1.8 55.8413 3.636 55.8413 6.624C55.8413 9.504 52.5293 11.664 52.5293 11.664L46.9853 15.912H56.3093L55.4093 20.844H54.6533ZM65.0765 24.12V23.364C68.0645 23.364 68.5325 22.788 68.5325 19.188V16.488H60.3605V15.804L70.4045 0.288H71.0525V15.192H71.4485C74.7605 15.192 75.1565 14.328 75.6245 12.456L75.8045 11.736H76.5605L76.2725 16.488H71.0525V19.188C71.0525 22.788 71.5205 23.364 74.5085 23.364V24.12H65.0765ZM62.3045 15.192H68.5325V5.58L62.3045 15.192ZM84.1219 18.288C83.0419 18.288 82.1779 17.424 82.1779 16.344C82.1779 15.264 83.0419 14.4 84.1219 14.4C85.2019 14.4 86.0659 15.264 86.0659 16.344C86.0659 17.424 85.2019 18.288 84.1219 18.288ZM91.591 18V17.244C94.579 17.244 95.047 16.632 95.047 13.032V7.344C95.047 3.744 94.579 3.132 91.591 3.132V2.412H101.059V3.132C98.035 3.132 97.603 3.744 97.603 7.344V13.032C97.603 16.632 98.035 17.244 101.059 17.244V18H91.591ZM117.161 20.844C117.161 18.468 116.549 18 112.949 18H105.533V17.136L111.905 12.132C114.677 9.936 115.361 7.992 115.361 6.66C115.361 4.572 113.777 3.312 111.473 3.312C108.989 3.312 106.577 5.76 108.377 8.712L107.297 9.828C102.977 7.236 105.209 1.8 111.473 1.8C115.001 1.8 118.349 3.636 118.349 6.624C118.349 9.504 115.037 11.664 115.037 11.664L109.493 15.912H118.817L117.917 20.844H117.161ZM127.188 18.288C126.108 18.288 125.244 17.424 125.244 16.344C125.244 15.264 126.108 14.4 127.188 14.4C128.268 14.4 129.132 15.264 129.132 16.344C129.132 17.424 128.268 18.288 127.188 18.288ZM147.149 20.844C147.149 18.468 146.537 18 142.937 18H135.521V17.136L141.893 12.132C144.665 9.936 145.349 7.992 145.349 6.66C145.349 4.572 143.765 3.312 141.461 3.312C138.977 3.312 136.565 5.76 138.365 8.712L137.285 9.828C132.965 7.236 135.197 1.8 141.461 1.8C144.989 1.8 148.337 3.636 148.337 6.624C148.337 9.504 145.025 11.664 145.025 11.664L139.481 15.912H148.805L147.905 20.844H147.149ZM153.361 18V17.244C156.349 17.244 156.817 16.632 156.817 13.032V7.344C156.817 3.744 156.349 3.132 153.361 3.132V2.412H162.829V3.132C159.805 3.132 159.373 3.744 159.373 7.344V13.032C159.373 16.632 159.805 17.244 162.829 17.244V18H153.361ZM170.255 18.288C169.175 18.288 168.311 17.424 168.311 16.344C168.311 15.264 169.175 14.4 170.255 14.4C171.335 14.4 172.199 15.264 172.199 16.344C172.199 17.424 171.335 18.288 170.255 18.288ZM177.652 18.612V13.356H178.408C178.408 14.976 179.776 17.388 182.332 17.388C183.52 17.388 184.384 16.56 184.384 15.552C184.384 14.652 183.592 14.004 182.368 13.356L180.352 12.276C178.624 11.34 177.976 9.828 177.976 8.676C177.976 6.732 179.776 5.4 181.612 5.4C183.484 5.4 184.204 6.228 184.672 6.228C184.816 6.228 184.888 5.976 184.888 5.4H185.644V9.576H184.888C184.888 8.064 183.808 6.552 181.972 6.552C180.748 6.552 180.136 7.2 180.136 8.1C180.136 8.964 180.712 9.432 182.332 10.296L184.06 11.232C185.644 12.132 186.544 13.392 186.544 14.688C186.544 17.064 184.6 18.612 182.26 18.612C180.64 18.612 179.38 17.46 178.876 17.46C178.552 17.46 178.408 17.748 178.408 18.612H177.652ZM193.126 18.468C191.362 18.468 189.886 17.352 189.886 15.444C189.886 12.384 193.45 11.052 197.554 10.332C197.554 7.632 197.194 6.552 195.142 6.552C194.314 6.552 193.09 7.128 193.09 8.28C193.09 9 192.55 9.54 191.866 9.54C191.146 9.54 190.606 9 190.606 8.28C190.606 6.552 192.874 5.4 195.178 5.4C198.67 5.4 200.11 6.876 200.11 10.296V15.732C200.11 16.632 200.398 17.136 200.938 17.136C201.298 17.136 201.694 16.848 201.946 16.596L202.45 17.28C201.766 18 200.866 18.396 200.074 18.396C198.67 18.396 197.806 17.604 197.626 16.308C195.862 17.892 194.566 18.468 193.126 18.468ZM194.278 16.848C195.034 16.848 195.898 16.596 197.554 15.12V11.448C194.134 12.24 192.586 13.428 192.586 15.012C192.586 16.164 193.378 16.848 194.278 16.848ZM209.257 18.504C207.277 18.504 205.909 17.244 205.909 14.472V7.272H204.037V6.408C206.197 5.94 206.989 4.392 207.241 2.052H208.465V6.012H211.597V7.272H208.465V14.472C208.465 16.164 208.933 17.064 210.085 17.064C210.733 17.064 211.597 16.632 212.425 15.84L213.037 16.452C212.029 17.676 210.445 18.504 209.257 18.504Z" fill="white"/>
</svg>
