<svg width="194" height="18" viewBox="0 0 194 18" fill="none" xmlns="http://www.w3.org/2000/svg">
<path d="M4.588 1.961C4.102 1.988 3.832 1.988 3.346 2.042C3.103 2.069 3.13 1.718 3.346 1.718C4.804 1.556 7.18 1.529 8.476 1.583C8.692 1.556 8.476 2.015 8.26 2.015C7.882 1.988 6.667 1.934 6.289 1.934C5.533 5.444 4.534 9.575 2.347 15.731C5.29 12.356 8.503 8.981 12.229 5.471C13.039 4.715 13.633 3.932 13.876 3.257C12.499 2.69 12.958 0.773 14.281 0.610999C14.713 0.556999 15.307 0.773 15.334 1.718C15.361 2.69 13.93 4.769 11.689 6.713C8.746 9.251 4.318 13.976 1.51 17.459C1.159 17.918 0.295 17.945 0.403 17.27C1.564 11.114 3.535 6.146 4.588 1.961ZM9.04342 16.649H10.3124C13.0124 12.086 15.9554 6.254 18.0344 1.853C17.6834 1.853 16.7384 1.853 16.3604 1.88C16.1444 1.88 16.3064 1.637 16.5224 1.637C18.0074 1.529 19.9784 1.475 21.4364 1.448C21.6524 1.448 21.6254 1.88 21.3824 1.88C20.8154 1.853 20.6534 1.826 19.9514 1.826C17.6834 6.254 13.2554 15.083 12.4184 16.622L14.1464 16.595C14.3624 16.568 14.2544 16.973 14.0384 16.973C12.9044 17.081 10.1234 16.973 8.96242 17.054C8.74642 17.081 8.82742 16.676 9.04342 16.649ZM24.8175 3.905C24.7905 2.798 24.7635 2.015 24.7635 1.826C24.7365 1.07 26.3565 0.53 26.4645 1.205C26.8695 4.121 26.9505 11.465 26.7075 15.218C31.0275 4.823 33.4845 1.178 34.8885 0.367998C35.4825 0.0169998 36.5085 0.0709991 36.8325 0.638C37.0755 1.097 36.9135 1.529 36.5895 1.772C36.0495 2.177 35.0775 2.15 34.9155 1.178C33.9165 1.286 31.2165 5.525 26.4375 17C26.3025 17.351 25.1685 17.27 25.1685 16.865C25.1145 14.354 24.9525 8.657 24.8445 5.039C21.9555 10.925 19.3095 15.326 18.8775 16.433C19.6605 16.379 20.5245 16.406 20.3625 16.973C20.3085 17.216 17.6355 17 16.6095 17.189C16.1235 17.27 16.5285 16.352 16.7985 16.352C17.2305 16.352 17.8245 16.244 18.2835 16.028C18.9855 15.272 22.2255 9.764 24.8175 3.905ZM32.2255 16.379L33.9535 16.487C36.7885 10.871 38.9215 6.173 40.8655 2.636C39.4615 2.474 38.6785 2.42 37.8955 2.555C37.7605 3.743 37.1125 4.445 36.4375 4.499C35.7355 4.553 35.4655 3.797 35.8975 2.96C36.3565 2.069 37.6795 1.961 38.4085 1.934C40.2985 1.826 44.4565 2.96 45.7525 2.177C45.5365 1.826 45.3745 1.232 45.7795 0.691999C46.2385 0.0709991 47.1835 0.125 47.3995 0.53C47.9665 1.502 46.6975 2.636 44.9155 2.798C44.2675 2.852 44.0785 2.798 42.5665 2.717C40.4065 6.281 37.7065 12.356 36.0595 16.595C36.8155 16.595 37.3555 16.568 38.1115 16.514C38.3275 16.514 38.2195 17 38.0035 16.973C36.0595 16.946 33.2245 17.135 32.1445 16.865C31.9555 16.811 32.0095 16.379 32.2255 16.379ZM48.3839 16.73C48.6809 16.622 49.1399 16.676 49.5719 16.676C50.0849 15.245 50.7869 12.869 51.2729 11.033C49.5719 11.06 47.9789 11.357 46.8719 11.573C43.6589 15.11 42.0659 17.135 40.3379 17.135C39.8519 17.135 39.4199 16.946 39.1499 16.46C38.5289 15.272 39.7979 14.597 40.6079 14.84C41.0939 14.975 41.3909 15.461 41.0129 16.298C42.2549 15.839 42.6869 15.596 46.9529 10.979C48.8699 8.9 51.7319 5.525 54.4319 1.394C54.4859 1.259 54.7559 0.745998 54.8369 0.610999C55.0529 0.0979987 56.1599 0.152 55.9709 0.745998C54.1619 6.524 52.7849 11.627 51.7589 16.649C52.4339 16.622 52.3529 16.622 53.1629 16.622C53.3249 16.757 53.3789 16.784 53.2169 16.919C51.1919 16.892 49.4099 17.081 48.4109 17.081C48.1679 17.081 48.1679 16.811 48.3839 16.73ZM51.3809 10.655C52.1099 7.82 52.7309 5.768 53.8379 3.014C51.5699 6.308 49.5449 8.576 47.6009 10.79C48.6269 10.709 49.7609 10.628 51.3809 10.655ZM63.2993 15.326C63.5693 14.138 64.2173 12.68 65.0543 11.384C64.2443 11.465 63.8933 11.465 63.0563 11.384C62.6513 11.33 63.0293 10.574 63.4343 10.628C65.1353 10.925 66.5663 11.114 68.1053 10.574C68.3213 10.493 68.1863 10.79 67.9703 10.871C67.5383 11.006 67.3493 11.087 66.9173 11.168C66.1073 12.329 64.4333 15.893 64.2713 16.892C64.1903 17.459 63.8393 17.189 63.6773 16.892C63.5153 16.622 63.2183 16.271 63.2723 15.839C62.4083 16.811 61.2203 17.54 60.0053 17.54C57.5753 17.54 56.1983 15.839 56.2523 13.301C56.3603 8.468 61.4903 1.826 66.2423 0.826999C67.5383 0.556999 68.7263 0.934999 69.2933 1.745C70.1843 3.041 68.3213 4.958 67.5113 5.201C66.9443 5.363 66.4313 5.093 66.2963 4.661C66.0533 3.851 67.1603 3.23 67.6733 3.581C67.8353 3.689 68.0243 3.986 67.9703 4.337C68.8883 4.121 69.3473 2.663 68.9423 1.934C68.5643 1.232 67.3493 1.151 66.4583 1.34C62.5433 2.204 59.3033 7.415 58.4123 11.951C57.8183 14.948 58.4123 16.676 60.4373 16.838C61.6793 16.919 62.4083 16.298 63.2993 15.326ZM68.0114 16.514C69.6314 13.706 72.1964 8.738 75.5984 1.961C74.8964 1.826 74.4104 1.799 73.8164 1.583C73.6004 1.502 73.8164 1.232 74.0324 1.259C78.5144 1.853 80.5664 1.907 82.3214 1.691C82.4294 1.529 82.5104 1.394 82.6454 1.232C83.2394 0.475999 84.4004 1.043 84.1304 1.313C83.0774 2.285 82.4024 3.23 81.8624 4.364C81.7544 4.58 81.4034 4.688 81.4304 4.418C81.5114 3.689 81.6464 2.69 82.1324 1.988C80.5124 2.177 79.5134 2.231 77.4344 2.069C76.2194 4.31 75.1124 6.497 74.2214 8.225C75.4364 8.522 76.4624 8.468 77.6234 8.225C77.7854 7.712 78.1094 7.55 78.4064 7.55C78.8654 7.55 79.2974 7.955 78.9734 8.306C78.3254 8.981 77.5154 10.142 77.0024 11.249C76.9484 11.384 76.6514 11.357 76.6784 11.249C76.7864 10.628 77.1914 9.089 77.4074 8.603C76.2194 8.846 75.1934 8.9 73.9784 8.711C71.7374 13.085 70.3874 15.218 70.2254 16.271C71.7644 16.406 74.1134 16.946 75.7064 16.73C76.1114 16.676 76.4624 16.568 76.7324 16.406C75.4904 15.083 77.4344 13.787 78.0284 14.516C78.9734 15.677 77.9744 16.892 75.8414 17.108C74.1944 17.27 72.3044 16.919 70.6844 16.892C68.9294 16.865 67.9844 16.757 66.3644 17.27C66.1754 17.324 66.2564 16.919 66.4454 16.865C67.1474 16.649 67.3364 16.568 68.0114 16.514ZM93.4229 3.311C95.3129 3.311 96.8519 4.85 96.8519 6.74C96.8519 8.657 95.3129 10.196 93.4229 10.196C91.5059 10.196 89.9669 8.657 89.9669 6.74C89.9669 4.85 91.5059 3.311 93.4229 3.311ZM106.815 17.108L107.733 17.027C109.434 14.273 112.89 6.767 115.428 2.204L113.997 2.285C113.781 2.285 113.835 1.853 114.051 1.853C115.374 1.853 116.967 1.826 119.37 1.664C119.613 1.664 119.505 1.988 119.289 1.988L117.318 2.123C116.13 4.283 114.996 6.47 113.808 8.846C116.859 8.711 118.668 8.63 120.099 8.711C121.206 6.632 122.421 4.634 123.474 2.609C122.691 2.609 122.286 2.609 121.854 2.501C121.638 2.501 121.611 2.177 121.827 2.15C122.259 2.366 125.553 1.988 126.903 2.069C127.119 2.123 127.146 2.393 126.93 2.42C126.066 2.312 125.391 2.501 125.391 2.501C122.88 6.983 120.045 11.816 117.912 16.757L120.261 16.676C120.477 16.649 120.342 17 120.099 17C117.966 17.027 115.995 17.162 114.24 17.351C114.024 17.351 113.997 17.027 114.213 17L115.779 16.784C116.319 15.812 118.128 12.437 119.829 9.17C118.29 9.089 116.454 9.359 113.484 9.521C112.323 11.87 111 14.381 109.812 17.027H111.54C111.783 17 111.972 17.351 111.756 17.378C110.055 17.27 108.165 17.324 106.599 17.513C106.356 17.513 106.599 17.108 106.815 17.108ZM129.331 16.73C129.628 16.622 130.087 16.676 130.519 16.676C131.032 15.245 131.734 12.869 132.22 11.033C130.519 11.06 128.926 11.357 127.819 11.573C124.606 15.11 123.013 17.135 121.285 17.135C120.799 17.135 120.367 16.946 120.097 16.46C119.476 15.272 120.745 14.597 121.555 14.84C122.041 14.975 122.338 15.461 121.96 16.298C123.202 15.839 123.634 15.596 127.9 10.979C129.817 8.9 132.679 5.525 135.379 1.394C135.433 1.259 135.703 0.745998 135.784 0.610999C136 0.0979987 137.107 0.152 136.918 0.745998C135.109 6.524 133.732 11.627 132.706 16.649C133.381 16.622 133.3 16.622 134.11 16.622C134.272 16.757 134.326 16.784 134.164 16.919C132.139 16.892 130.357 17.081 129.358 17.081C129.115 17.081 129.115 16.811 129.331 16.73ZM132.328 10.655C133.057 7.82 133.678 5.768 134.785 3.014C132.517 6.308 130.492 8.576 128.548 10.79C129.574 10.709 130.708 10.628 132.328 10.655ZM136.757 16.811C137.162 16.784 137.513 16.784 137.999 16.784C142.589 9.845 142.562 7.793 140.915 2.042C140.483 2.069 140.159 2.069 139.808 2.123C139.592 2.15 139.646 1.691 139.862 1.691C140.834 1.718 142.346 1.61 143.75 1.421C143.966 1.394 144.047 1.718 143.831 1.745C143.291 1.826 143.021 1.826 142.535 1.88C143.48 3.797 144.074 7.118 143.372 9.44C147.206 3.635 150.122 0.799999 152.12 1.205C152.606 1.286 153.011 1.88 152.93 2.312C152.795 3.122 152.336 3.419 151.931 3.419C151.148 3.419 150.986 2.609 151.472 1.718C149.555 1.961 145.451 6.767 142.832 11.087C142.157 12.68 141.32 14.651 140.132 16.703C140.861 16.757 141.401 16.703 141.833 16.622C142.049 16.568 142.103 16.892 141.914 16.946C141.158 17.108 139.133 17.108 136.757 17.189C136.541 17.189 136.541 16.811 136.757 16.811ZM152.772 16.73C153.069 16.622 153.528 16.676 153.96 16.676C154.473 15.245 155.175 12.869 155.661 11.033C153.96 11.06 152.367 11.357 151.26 11.573C148.047 15.11 146.454 17.135 144.726 17.135C144.24 17.135 143.808 16.946 143.538 16.46C142.917 15.272 144.186 14.597 144.996 14.84C145.482 14.975 145.779 15.461 145.401 16.298C146.643 15.839 147.075 15.596 151.341 10.979C153.258 8.9 156.12 5.525 158.82 1.394C158.874 1.259 159.144 0.745998 159.225 0.610999C159.441 0.0979987 160.548 0.152 160.359 0.745998C158.55 6.524 157.173 11.627 156.147 16.649C156.822 16.622 156.741 16.622 157.551 16.622C157.713 16.757 157.767 16.784 157.605 16.919C155.58 16.892 153.798 17.081 152.799 17.081C152.556 17.081 152.556 16.811 152.772 16.73ZM155.769 10.655C156.498 7.82 157.119 5.768 158.226 3.014C155.958 6.308 153.933 8.576 151.989 10.79C153.015 10.709 154.149 10.628 155.769 10.655ZM169.464 4.958C169.734 3.878 170.031 2.879 170.382 1.988C170.625 1.34 171.921 1.016 171.786 1.664C170.706 7.064 170.274 11.276 169.356 14.624C172.083 11.168 174.972 7.955 177.51 3.959C177.861 3.122 178.239 2.312 178.644 1.502C179.157 0.638 180.777 0.205999 180.345 0.988999C178.455 4.553 177.402 9.629 175.998 16.595C176.97 16.487 176.862 16.514 177.564 16.541C177.807 16.541 177.672 16.946 177.456 16.973C176.727 17.027 174.243 17.108 172.38 17.459C172.164 17.486 172.029 16.973 172.245 16.919C172.65 16.838 173.541 16.784 173.919 16.73C174.675 13.004 175.512 9.332 176.808 5.768C174.243 9.467 171.273 12.788 168.573 16.46C168.033 17.243 167.115 17.189 167.25 16.541C167.898 13.652 168.384 9.926 169.113 6.551C165.252 13.841 162.282 16.73 160.635 17.351C159.231 17.864 158.178 17.513 158.421 16.406C158.637 15.245 159.663 15.083 160.338 15.461C160.716 15.677 160.959 16.028 160.905 16.487C162.12 15.677 164.469 14.273 169.464 4.958ZM186.232 16.73C186.529 16.622 186.988 16.676 187.42 16.676C187.933 15.245 188.635 12.869 189.121 11.033C187.42 11.06 185.827 11.357 184.72 11.573C181.507 15.11 179.914 17.135 178.186 17.135C177.7 17.135 177.268 16.946 176.998 16.46C176.377 15.272 177.646 14.597 178.456 14.84C178.942 14.975 179.239 15.461 178.861 16.298C180.103 15.839 180.535 15.596 184.801 10.979C186.718 8.9 189.58 5.525 192.28 1.394C192.334 1.259 192.604 0.745998 192.685 0.610999C192.901 0.0979987 194.008 0.152 193.819 0.745998C192.01 6.524 190.633 11.627 189.607 16.649C190.282 16.622 190.201 16.622 191.011 16.622C191.173 16.757 191.227 16.784 191.065 16.919C189.04 16.892 187.258 17.081 186.259 17.081C186.016 17.081 186.016 16.811 186.232 16.73ZM189.229 10.655C189.958 7.82 190.579 5.768 191.686 3.014C189.418 6.308 187.393 8.576 185.449 10.79C186.475 10.709 187.609 10.628 189.229 10.655Z" fill="black"/>
</svg>
